<svg viewBox="0 0 78 24" fill="none" xmlns="http://www.w3.org/2000/svg" width="390" height="120">
  <!-- N: two vertical bars + diagonal bar -->
  <g>
    <rect x="0" y="0" width="4" height="24" rx="0.5" fill="hsl(212, 92%, 60%)"/>
    <rect x="16" y="0" width="4" height="24" rx="0.5" fill="hsl(212, 92%, 60%)"/>
    <rect x="4" y="0" width="4" height="6" rx="0.5" fill="hsl(212, 92%, 60%)"/>
    <rect x="8" y="6" width="4" height="6" rx="0.5" fill="hsl(212, 92%, 60%)"/>
    <rect x="12" y="12" width="4" height="6" rx="0.5" fill="hsl(212, 92%, 60%)"/>
    <rect x="16" y="18" width="4" height="6" rx="0.5" fill="hsl(212, 92%, 60%)"/>
    <line x1="4" y1="3" x2="8" y2="3" stroke="hsl(212, 92%, 70%)" stroke-width="0.6"/>
    <line x1="8" y1="9" x2="12" y2="9" stroke="hsl(212, 92%, 70%)" stroke-width="0.6"/>
    <line x1="12" y1="15" x2="16" y2="15" stroke="hsl(212, 92%, 70%)" stroke-width="0.6"/>
  </g>
  <!-- E: vertical bar + 3 horizontal bars -->
  <g transform="translate(28, 0)">
    <rect x="0" y="0" width="4" height="24" rx="0.5" fill="hsl(212, 92%, 60%)"/>
    <rect x="0" y="0" width="16" height="4" rx="0.5" fill="hsl(212, 92%, 60%)"/>
    <rect x="0" y="10" width="12" height="4" rx="0.5" fill="hsl(212, 92%, 60%)"/>
    <rect x="0" y="20" width="16" height="4" rx="0.5" fill="hsl(212, 92%, 60%)"/>
    <line x1="4" y1="2" x2="16" y2="2" stroke="hsl(212, 92%, 70%)" stroke-width="0.6"/>
    <line x1="4" y1="12" x2="12" y2="12" stroke="hsl(212, 92%, 70%)" stroke-width="0.6"/>
    <line x1="4" y1="22" x2="16" y2="22" stroke="hsl(212, 92%, 70%)" stroke-width="0.6"/>
  </g>
  <!-- O: frame -->
  <g transform="translate(52, 0)">
    <rect x="0" y="0" width="4" height="24" rx="0.5" fill="hsl(212, 92%, 60%)"/>
    <rect x="22" y="0" width="4" height="24" rx="0.5" fill="hsl(212, 92%, 60%)"/>
    <rect x="0" y="0" width="26" height="4" rx="0.5" fill="hsl(212, 92%, 60%)"/>
    <rect x="0" y="20" width="26" height="4" rx="0.5" fill="hsl(212, 92%, 60%)"/>
    <line x1="4" y1="2" x2="22" y2="2" stroke="hsl(212, 92%, 70%)" stroke-width="0.6"/>
    <line x1="4" y1="22" x2="22" y2="22" stroke="hsl(212, 92%, 70%)" stroke-width="0.6"/>
    <line x1="2" y1="4" x2="2" y2="20" stroke="hsl(212, 92%, 70%)" stroke-width="0.6"/>
    <line x1="24" y1="4" x2="24" y2="20" stroke="hsl(212, 92%, 70%)" stroke-width="0.6"/>
  </g>
</svg>
